<svg width="18" height="18" viewBox="0 0 18 18" fill="none" xmlns="http://www.w3.org/2000/svg">
<path d="M6.00408 9C6.00408 7.34321 7.34761 5.99976 9.0054 5.99976C10.6632 5.99976 12.0074 7.34321 12.0074 9C12.0074 10.6568 10.6632 12.0002 9.0054 12.0002C7.34761 12.0002 6.00408 10.6568 6.00408 9ZM4.38124 9C4.38124 11.5524 6.45147 13.6214 9.0054 13.6214C11.5593 13.6214 13.6296 11.5524 13.6296 9C13.6296 6.4476 11.5593 4.37861 9.0054 4.37861C6.45147 4.37861 4.38124 6.4476 4.38124 9ZM12.732 4.19537C12.7319 4.40897 12.7952 4.6178 12.9139 4.79546C13.0325 4.97311 13.2013 5.1116 13.3987 5.19342C13.5961 5.27525 13.8134 5.29672 14.023 5.25513C14.2327 5.21354 14.4253 5.11076 14.5765 4.95978C14.7276 4.8088 14.8306 4.6164 14.8724 4.40692C14.9142 4.19744 14.8929 3.98028 14.8112 3.7829C14.7295 3.58552 14.591 3.4168 14.4134 3.29805C14.2357 3.17931 14.0268 3.11589 13.8131 3.1158H13.8126C13.5261 3.11593 13.2514 3.2297 13.0488 3.43212C12.8462 3.63454 12.7322 3.90905 12.732 4.19537ZM5.36722 16.3258C4.48923 16.2858 4.01201 16.1397 3.69488 16.0162C3.27444 15.8526 2.97445 15.6578 2.65904 15.343C2.34364 15.0282 2.1484 14.7287 1.98544 14.3085C1.86181 13.9917 1.71556 13.5146 1.67565 12.6372C1.63199 11.6885 1.62328 11.4035 1.62328 9.00007C1.62328 6.59664 1.63272 6.31246 1.67565 5.36299C1.71564 4.48553 1.86297 4.00939 1.98544 3.69166C2.14912 3.27146 2.34407 2.97166 2.65904 2.65644C2.97402 2.34122 3.27372 2.1461 3.69488 1.98324C4.01187 1.85969 4.48923 1.71353 5.36722 1.67364C6.31646 1.63001 6.60161 1.6213 9.0054 1.6213C11.4092 1.6213 11.6946 1.63073 12.6447 1.67364C13.5227 1.7136 13.9991 1.86084 14.317 1.98324C14.7374 2.1461 15.0374 2.34166 15.3528 2.65644C15.6682 2.97122 15.8628 3.27146 16.0264 3.69166C16.1501 4.00846 16.2963 4.48553 16.3362 5.36299C16.3799 6.31246 16.3886 6.59664 16.3886 9.00007C16.3886 11.4035 16.3799 11.6877 16.3362 12.6372C16.2962 13.5146 16.1493 13.9915 16.0264 14.3085C15.8628 14.7287 15.6678 15.0285 15.3528 15.343C15.0379 15.6575 14.7374 15.8526 14.317 16.0162C14 16.1397 13.5227 16.2859 12.6447 16.3258C11.6954 16.3694 11.4103 16.3781 9.0054 16.3781C6.60053 16.3781 6.31617 16.3694 5.36722 16.3258ZM5.29265 0.054504C4.33398 0.098136 3.67889 0.250056 3.10679 0.472536C2.51431 0.702288 2.01274 1.01052 1.51154 1.51063C1.01033 2.01074 0.702709 2.5128 0.47282 3.10493C0.250206 3.67704 0.0981949 4.33138 0.0545367 5.28948C0.0101581 6.2491 0 6.55589 0 9C0 11.4441 0.0101581 11.7509 0.0545367 12.7105C0.0981949 13.6687 0.250206 14.323 0.47282 14.8951C0.702709 15.4868 1.01041 15.9895 1.51154 16.4894C2.01267 16.9893 2.51431 17.2971 3.10679 17.5275C3.67997 17.7499 4.33398 17.9019 5.29265 17.9455C6.25335 17.9891 6.55982 18 9.0054 18C11.451 18 11.758 17.9898 12.7181 17.9455C13.6769 17.9019 14.3316 17.7499 14.904 17.5275C15.4961 17.2971 15.9981 16.9895 16.4993 16.4894C17.0005 15.9893 17.3074 15.4868 17.538 14.8951C17.7606 14.323 17.9133 13.6686 17.9563 12.7105C17.9999 11.7502 18.0101 11.4441 18.0101 9C18.0101 6.55589 17.9999 6.2491 17.9563 5.28948C17.9126 4.3313 17.7606 3.67668 17.538 3.10493C17.3074 2.51316 16.9997 2.01154 16.4993 1.51063C15.9988 1.00973 15.4961 0.702288 14.9047 0.472536C14.3316 0.250056 13.6768 0.097416 12.7189 0.054504C11.7587 0.010872 11.4517 0 9.00612 0C6.56054 0 6.25335 0.010152 5.29265 0.054504Z" fill="white"/>
<path d="M6.00408 9C6.00408 7.34321 7.34761 5.99976 9.0054 5.99976C10.6632 5.99976 12.0074 7.34321 12.0074 9C12.0074 10.6568 10.6632 12.0002 9.0054 12.0002C7.34761 12.0002 6.00408 10.6568 6.00408 9ZM4.38124 9C4.38124 11.5524 6.45147 13.6214 9.0054 13.6214C11.5593 13.6214 13.6296 11.5524 13.6296 9C13.6296 6.4476 11.5593 4.37861 9.0054 4.37861C6.45147 4.37861 4.38124 6.4476 4.38124 9ZM12.732 4.19537C12.7319 4.40897 12.7952 4.6178 12.9139 4.79546C13.0325 4.97311 13.2013 5.1116 13.3987 5.19342C13.5961 5.27525 13.8134 5.29672 14.023 5.25513C14.2327 5.21354 14.4253 5.11076 14.5765 4.95978C14.7276 4.8088 14.8306 4.6164 14.8724 4.40692C14.9142 4.19744 14.8929 3.98028 14.8112 3.7829C14.7295 3.58552 14.591 3.4168 14.4134 3.29805C14.2357 3.17931 14.0268 3.11589 13.8131 3.1158H13.8126C13.5261 3.11593 13.2514 3.2297 13.0488 3.43212C12.8462 3.63454 12.7322 3.90905 12.732 4.19537ZM5.36722 16.3258C4.48923 16.2858 4.01201 16.1397 3.69488 16.0162C3.27444 15.8526 2.97445 15.6578 2.65904 15.343C2.34364 15.0282 2.1484 14.7287 1.98544 14.3085C1.86181 13.9917 1.71556 13.5146 1.67565 12.6372C1.63199 11.6885 1.62328 11.4035 1.62328 9.00007C1.62328 6.59664 1.63272 6.31246 1.67565 5.36299C1.71564 4.48553 1.86297 4.00939 1.98544 3.69166C2.14912 3.27146 2.34407 2.97166 2.65904 2.65644C2.97402 2.34122 3.27372 2.1461 3.69488 1.98324C4.01187 1.85969 4.48923 1.71353 5.36722 1.67364C6.31646 1.63001 6.60161 1.6213 9.0054 1.6213C11.4092 1.6213 11.6946 1.63073 12.6447 1.67364C13.5227 1.7136 13.9991 1.86084 14.317 1.98324C14.7374 2.1461 15.0374 2.34166 15.3528 2.65644C15.6682 2.97122 15.8628 3.27146 16.0264 3.69166C16.1501 4.00846 16.2963 4.48553 16.3362 5.36299C16.3799 6.31246 16.3886 6.59664 16.3886 9.00007C16.3886 11.4035 16.3799 11.6877 16.3362 12.6372C16.2962 13.5146 16.1493 13.9915 16.0264 14.3085C15.8628 14.7287 15.6678 15.0285 15.3528 15.343C15.0379 15.6575 14.7374 15.8526 14.317 16.0162C14 16.1397 13.5227 16.2859 12.6447 16.3258C11.6954 16.3694 11.4103 16.3781 9.0054 16.3781C6.60053 16.3781 6.31617 16.3694 5.36722 16.3258ZM5.29265 0.054504C4.33398 0.098136 3.67889 0.250056 3.10679 0.472536C2.51431 0.702288 2.01274 1.01052 1.51154 1.51063C1.01033 2.01074 0.702709 2.5128 0.47282 3.10493C0.250206 3.67704 0.0981949 4.33138 0.0545367 5.28948C0.0101581 6.2491 0 6.55589 0 9C0 11.4441 0.0101581 11.7509 0.0545367 12.7105C0.0981949 13.6687 0.250206 14.323 0.47282 14.8951C0.702709 15.4868 1.01041 15.9895 1.51154 16.4894C2.01267 16.9893 2.51431 17.2971 3.10679 17.5275C3.67997 17.7499 4.33398 17.9019 5.29265 17.9455C6.25335 17.9891 6.55982 18 9.0054 18C11.451 18 11.758 17.9898 12.7181 17.9455C13.6769 17.9019 14.3316 17.7499 14.904 17.5275C15.4961 17.2971 15.9981 16.9895 16.4993 16.4894C17.0005 15.9893 17.3074 15.4868 17.538 14.8951C17.7606 14.323 17.9133 13.6686 17.9563 12.7105C17.9999 11.7502 18.0101 11.4441 18.0101 9C18.0101 6.55589 17.9999 6.2491 17.9563 5.28948C17.9126 4.3313 17.7606 3.67668 17.538 3.10493C17.3074 2.51316 16.9997 2.01154 16.4993 1.51063C15.9988 1.00973 15.4961 0.702288 14.9047 0.472536C14.3316 0.250056 13.6768 0.097416 12.7189 0.054504C11.7587 0.010872 11.4517 0 9.00612 0C6.56054 0 6.25335 0.010152 5.29265 0.054504Z" fill="white"/>
</svg>
