<svg width="30" height="30" viewBox="0 0 30 30" fill="none" xmlns="http://www.w3.org/2000/svg">
<path d="M21.55 23.575C20.55 23.575 19.6 23.9625 18.9 24.6625L16.7625 26.775C15.7875 27.7375 14.2 27.7375 13.225 26.775L11.0875 24.6625C10.3875 23.9625 9.425 23.575 8.4375 23.575H7.5C5.425 23.575 3.75 21.9125 3.75 19.8625V6.22498C3.75 4.17498 5.425 2.51251 7.5 2.51251H22.5C24.575 2.51251 26.25 4.17498 26.25 6.22498V19.8625C26.25 21.9 24.575 23.575 22.5 23.575H21.55Z" stroke="#3B72AA" stroke-width="1.5" stroke-linecap="round" stroke-linejoin="round"/>
<path d="M14.65 18.7C13.025 18.1375 9.375 15.825 9.375 11.8875C9.375 10.15 10.775 8.75 12.5 8.75C13.525 8.75 14.425 9.2375 15 10C15.575 9.2375 16.475 8.75 17.5 8.75C19.225 8.75 20.625 10.15 20.625 11.8875C20.6125 15.825 16.975 18.1375 15.35 18.7C15.1625 18.7625 14.85 18.7625 14.65 18.7Z" stroke="#3B72AA" stroke-width="1.5" stroke-linecap="round" stroke-linejoin="round"/>
</svg>
