<svg width="30" height="30" viewBox="0 0 30 30" fill="none" xmlns="http://www.w3.org/2000/svg">
<path d="M27.5 18.75C27.5 21.875 26.875 24.0625 25.475 25.475L17.5 17.5L27.1625 7.83752C27.3875 8.82502 27.5 9.95002 27.5 11.25V18.75Z" stroke="#3B72AA" stroke-width="1.5" stroke-linecap="round" stroke-linejoin="round"/>
<path d="M7.83749 27.1625C4.07499 26.3 2.5 23.7 2.5 18.75V11.25C2.5 5 5 2.5 11.25 2.5H18.75C23.7 2.5 26.3 4.07501 27.1625 7.83751L7.83749 27.1625Z" stroke="#3B72AA" stroke-width="1.5" stroke-linecap="round" stroke-linejoin="round"/>
<path d="M18.75 27.5H11.25C9.95004 27.5 8.82502 27.3875 7.83752 27.1625L17.5 17.5L25.475 25.475C24.0625 26.875 21.875 27.5 18.75 27.5Z" stroke="#3B72AA" stroke-width="1.5" stroke-linecap="round" stroke-linejoin="round"/>
<path d="M15 9.97496C15.4875 12.125 14.1375 13.95 12.95 15.075C12.0875 15.9 10.725 15.9 9.85004 15.075C8.66254 13.95 7.30002 12.125 7.80002 9.97496C8.65002 6.31246 14.15 6.31246 15 9.97496Z" stroke="#3B72AA" stroke-width="1.5"/>
<path d="M11.3683 10.8749H11.3795" stroke="#3B72AA" stroke-width="2" stroke-linecap="round" stroke-linejoin="round"/>
</svg>
