<svg width="18" height="18" viewBox="0 0 18 18" fill="none" xmlns="http://www.w3.org/2000/svg">
<path d="M13.3575 5.37C12.3225 5.3325 11.4975 4.485 11.4975 3.435C11.4975 2.3625 12.36 1.5 13.4325 1.5C14.505 1.5 15.3675 2.37 15.3675 3.435C15.36 4.485 14.535 5.3325 13.5 5.37C13.455 5.3625 13.4025 5.3625 13.3575 5.37Z" stroke="#8A8068" stroke-width="1.5" stroke-linecap="round" stroke-linejoin="round"/>
<path d="M12.7275 10.83C13.755 11.0025 14.8875 10.8225 15.6825 10.29C16.74 9.585 16.74 8.43 15.6825 7.725C14.88 7.1925 13.7325 7.01249 12.705 7.19249" stroke="#8A8068" stroke-width="1.5" stroke-linecap="round" stroke-linejoin="round"/>
<path d="M4.61999 5.37C5.65499 5.3325 6.47999 4.485 6.47999 3.435C6.47999 2.3625 5.61749 1.5 4.54499 1.5C3.47249 1.5 2.60999 2.37 2.60999 3.435C2.61749 4.485 3.44249 5.3325 4.47749 5.37C4.52249 5.3625 4.57499 5.3625 4.61999 5.37Z" stroke="#8A8068" stroke-width="1.5" stroke-linecap="round" stroke-linejoin="round"/>
<path d="M5.24996 10.83C4.22246 11.0025 3.08996 10.8225 2.29496 10.29C1.23746 9.585 1.23746 8.43 2.29496 7.725C3.09746 7.1925 4.24495 7.01249 5.27245 7.19249" stroke="#8A8068" stroke-width="1.5" stroke-linecap="round" stroke-linejoin="round"/>
<path d="M8.85747 10.9725C7.82247 10.935 6.99747 10.0875 6.99747 9.03754C6.99747 7.96504 7.85997 7.10254 8.93247 7.10254C10.005 7.10254 10.8675 7.97254 10.8675 9.03754C10.86 10.0875 10.035 10.9425 8.99997 10.9725C8.95497 10.965 8.90247 10.965 8.85747 10.9725Z" stroke="#8A8068" stroke-width="1.5" stroke-linecap="round" stroke-linejoin="round"/>
<path d="M6.81748 15.9C8.01748 16.7025 9.98248 16.7025 11.1825 15.9C12.24 15.195 12.24 14.04 11.1825 13.335C9.98998 12.54 8.01748 12.54 6.81748 13.335C5.75998 14.04 5.75998 15.195 6.81748 15.9Z" stroke="#8A8068" stroke-width="1.5" stroke-linecap="round" stroke-linejoin="round"/>
</svg>
