<svg width="30" height="30" viewBox="0 0 30 30" fill="none" xmlns="http://www.w3.org/2000/svg">
<path d="M22.2625 8.95C20.5375 8.8875 19.1625 7.475 19.1625 5.725C19.1625 3.9375 20.6 2.5 22.3875 2.5C24.175 2.5 25.6125 3.95 25.6125 5.725C25.6 7.475 24.225 8.8875 22.5 8.95C22.425 8.9375 22.3375 8.9375 22.2625 8.95Z" stroke="#3B72AA" stroke-width="1.5" stroke-linecap="round" stroke-linejoin="round"/>
<path d="M21.2124 18.0501C22.9249 18.3376 24.8124 18.0376 26.1374 17.1501C27.8999 15.9751 27.8999 14.0501 26.1374 12.8751C24.7999 11.9876 22.8874 11.6876 21.1749 11.9876" stroke="#3B72AA" stroke-width="1.5" stroke-linecap="round" stroke-linejoin="round"/>
<path d="M7.69998 8.95C9.42498 8.8875 10.8 7.475 10.8 5.725C10.8 3.9375 9.36248 2.5 7.57498 2.5C5.78748 2.5 4.34998 3.95 4.34998 5.725C4.36248 7.475 5.73748 8.8875 7.46248 8.95C7.53748 8.9375 7.62498 8.9375 7.69998 8.95Z" stroke="#3B72AA" stroke-width="1.5" stroke-linecap="round" stroke-linejoin="round"/>
<path d="M8.74992 18.0501C7.03742 18.3376 5.14993 18.0376 3.82493 17.1501C2.06243 15.9751 2.06243 14.0501 3.82493 12.8751C5.16243 11.9876 7.07492 11.6876 8.78742 11.9876" stroke="#3B72AA" stroke-width="1.5" stroke-linecap="round" stroke-linejoin="round"/>
<path d="M14.7624 18.2875C13.0374 18.225 11.6624 16.8125 11.6624 15.0625C11.6624 13.275 13.0999 11.8375 14.8874 11.8375C16.6749 11.8375 18.1124 13.2875 18.1124 15.0625C18.0999 16.8125 16.7249 18.2375 14.9999 18.2875C14.9249 18.275 14.8374 18.275 14.7624 18.2875Z" stroke="#3B72AA" stroke-width="1.5" stroke-linecap="round" stroke-linejoin="round"/>
<path d="M11.3624 26.4999C13.3624 27.8375 16.6374 27.8375 18.6374 26.4999C20.3999 25.3249 20.3999 23.4 18.6374 22.225C16.6499 20.9 13.3624 20.9 11.3624 22.225C9.5999 23.4 9.5999 25.3249 11.3624 26.4999Z" stroke="#3B72AA" stroke-width="1.5" stroke-linecap="round" stroke-linejoin="round"/>
</svg>
