<svg width="22" height="22" viewBox="0 0 22 22" fill="none" xmlns="http://www.w3.org/2000/svg">
<path d="M8.19019 18.385C9.89519 20.09 12.6635 20.09 14.3777 18.385L18.4019 14.3608C20.1069 12.6558 20.1069 9.8875 18.4019 8.17334L14.2402 4.03C13.3694 3.15917 12.1685 2.69167 10.9402 2.75584L6.35686 2.97584C4.52353 3.05834 3.06603 4.51584 2.97436 6.34L2.75436 10.9233C2.69936 12.1608 3.16686 13.3617 4.03769 14.2325L8.19019 18.385Z" stroke="white" stroke-width="1.5" stroke-linecap="round" stroke-linejoin="round"/>
<path fill-rule="evenodd" clip-rule="evenodd" d="M8.92362 11.2075C7.65797 11.2075 6.63196 10.1815 6.63196 8.91581C6.63196 7.65016 7.65797 6.62415 8.92362 6.62415C10.1893 6.62415 11.2153 7.65016 11.2153 8.91581C11.2153 10.1815 10.1893 11.2075 8.92362 11.2075Z" stroke="white" stroke-width="1.5" stroke-linecap="round"/>
<path d="M12.132 15.7908L15.7986 12.1241" stroke="white" stroke-width="1.5" stroke-linecap="round" stroke-linejoin="round"/>
</svg>
